<?xml version="1.0" encoding="utf-8"?>
<!-- Generator: Adobe Illustrator 27.5.0, SVG Export Plug-In . SVG Version: 6.00 Build 0)  -->
<svg version="1.1" xmlns="http://www.w3.org/2000/svg" xmlns:xlink="http://www.w3.org/1999/xlink" x="0px" y="0px"
	 viewBox="0 0 750 500" style="enable-background:new 0 0 750 500;" xml:space="preserve">
<g id="Background_complete">
	<path style="fill:none;stroke:#E0E0E0;stroke-width:8;stroke-linecap:round;stroke-linejoin:round;stroke-miterlimit:10;" d="
		M232.911,171.967c27.348-13.065,61.803-9.719,86.125,8.365"/>
	<polygon style="fill:#E0E0E0;" points="319.455,171.229 310.079,184.467 325.933,185.476 	"/>
	<g>
		<path style="fill:none;stroke:#E0E0E0;stroke-width:8;stroke-linecap:round;stroke-linejoin:round;stroke-miterlimit:10;" d="
			M417.941,378.08c21.415,9.413,45.335,14.143,68.426,10.401c23.091-3.742,45.173-16.597,57.353-36.569"/>
		<polygon style="fill:#E0E0E0;" points="535.637,350.181 548.351,359.273 550.047,344.992 		"/>
	</g>
	<g>
		<g>
			<g>
				<path style="fill:#EBEBEB;" d="M88.559,339.75c-0.15,0.346-0.638-0.318-0.483-2.311c0.094-1.205,0.375-2.698,0.706-3.867
					c1.307-4.62,0.654-7.81,1.961-12.43c2.495-8.82,7.476-19.799,15.544-25.08c2.798-1.832,7.235-2.772,9.259-0.218
					c1.517,1.914,0.676,4.581-0.221,6.802c-1.408,3.488-2.816,6.976-4.224,10.464c-2.213,5.481-4.456,11.018-7.974,15.887
					C99.608,333.865,94.645,338.077,88.559,339.75"/>
			</g>
			<g>
				<g>
					<path style="fill:#E0E0E0;" d="M84.045,354.892c0.937-4.285,2.461-8.433,4.233-12.438c2.448-5.532,5.656-10.582,8.483-15.908
						c2.589-4.878,4.566-10.042,6.787-15.089c0.964-2.19,1.965-4.382,3.199-6.435c0.708-1.177,1.575-2.194,2.396-3.284
						c1.728-2.294,3.45-4.593,5.174-6.89c0.29-0.386-0.361-0.76-0.648-0.378c-1.595,2.124-3.191,4.249-4.787,6.373
						c-0.687,0.915-1.451,1.763-2.093,2.712c-1.246,1.842-2.226,3.86-3.151,5.876c-2.332,5.08-4.286,10.327-6.798,15.325
						c-2.709,5.39-6.037,10.418-8.573,15.909c-2.078,4.499-3.885,9.175-4.946,14.026C83.219,355.163,83.942,355.364,84.045,354.892
						L84.045,354.892z"/>
				</g>
			</g>
			<g>
				<path style="fill:#EBEBEB;" d="M70.845,349.242c2.481-10.074,0.908-20.951-4.35-30.077
					c-5.257-9.126-14.156-16.424-24.606-20.182c-2.105-0.757-4.49-1.371-6.58-0.579c-2.232,0.846-3.503,3.15-3.6,5.371
					s0.773,4.378,1.773,6.401c3.002,6.074,7.262,11.536,11.494,16.954c4.153,5.316,8.305,10.632,12.458,15.948
					c1.321,1.691,2.684,3.421,4.572,4.569C63.894,348.794,68.866,350.251,70.845,349.242"/>
			</g>
			<g>
				<path style="fill:#EBEBEB;" d="M81.455,322.046c2.568-2.601,4.802-12.148,4.754-13.756c-0.191-6.355,0.681-4.397,0.49-10.752
					c-0.365-12.133-4.775-27.528-13.523-36.608c-3.035-3.15-8.485-5.594-11.943-2.84c-2.591,2.064-2.369,5.758-1.929,8.887
					c0.691,4.915,1.382,9.829,2.074,14.744c1.086,7.723,2.194,15.527,5.173,22.815c2.979,7.289,8.048,14.124,15.399,17.975"/>
			</g>
			<g>
				<g>
					<path style="fill:#E0E0E0;" d="M80.987,372.934c2.036-5.831-0.675-11.908-4.232-16.528c-4.084-5.305-9.34-9.621-12.567-15.574
						c-3.189-5.884-4.644-12.478-7.126-18.653c-1.737-4.321-4.654-8.101-7.945-11.358c-4.578-4.53-10.14-8.163-16.314-10.077
						c-0.462-0.143-0.66,0.58-0.199,0.723c5.585,1.731,10.648,4.906,14.922,8.869c3.428,3.177,6.593,6.947,8.488,11.258
						c2.451,5.575,3.762,11.583,6.294,17.132c2.637,5.779,6.857,10.125,11.042,14.792c4.588,5.116,9.428,12.013,6.913,19.217
						C80.104,373.191,80.828,373.388,80.987,372.934L80.987,372.934z"/>
				</g>
			</g>
			<g>
				<g>
					<path style="fill:#E0E0E0;" d="M86.584,374.762c-0.789-8.599-2.22-17.117-3.28-25.684c-0.558-4.513-1.003-9.041-1.239-13.583
						c-0.25-4.798-0.109-9.594-0.261-14.393c-0.295-9.304-1.546-18.582-3.708-27.635c-1.118-4.681-2.482-9.303-4.086-13.84
						c-1.456-4.118-3.008-8.33-5.002-12.224c-1.804-3.524-3.85-6.942-5.771-10.405c-0.234-0.422-0.882-0.044-0.648,0.379
						c1.825,3.291,3.651,6.582,5.476,9.872c1.671,3.012,2.892,6.347,4.114,9.56c1.685,4.43,3.138,8.947,4.354,13.528
						c2.432,9.162,3.914,18.572,4.407,28.039c0.249,4.789,0.095,9.58,0.257,14.371c0.152,4.482,0.513,8.953,1.012,13.409
						c1.07,9.553,2.746,19.029,3.625,28.605C85.878,375.238,86.628,375.243,86.584,374.762L86.584,374.762z"/>
				</g>
			</g>
		</g>
		<path style="fill:#E6E6E6;" d="M62.039,353.409h40.9c0,0,2.985,6.872-2.985,8.797l-3.732,22.541H68.01l-3.135-22.129
			C64.875,362.618,60.248,360.831,62.039,353.409z"/>
		<g style="enable-background:new    ;">
			<path style="fill:#E0E0E0;" d="M64.875,362.618c11.5,0,23.578-0.412,35.078-0.412l-0.384,2.32H65.145L64.875,362.618z"/>
		</g>
	</g>
	<rect x="60.266" y="119.744" style="fill:#F0F0F0;" width="37.111" height="11.526"/>
	<rect x="168.894" y="42.855" style="fill:#F0F0F0;" width="37.111" height="11.526"/>
	<rect x="400.907" y="42.605" style="fill:#F0F0F0;" width="37.111" height="11.526"/>
	<g>
		<rect x="672.213" y="148.516" style="fill:#F0F0F0;" width="37.111" height="11.526"/>
		<rect x="653.658" y="137.381" style="fill:#EBEBEB;" width="37.111" height="11.526"/>
	</g>
	<rect x="569.607" y="367.057" style="fill:#E0E0E0;" width="37.111" height="11.526"/>
	<rect x="427.845" y="244.27" style="fill:#EBEBEB;" width="37.111" height="11.526"/>
	<rect x="444.766" y="232.745" style="fill:#F0F0F0;" width="37.111" height="11.526"/>
	<rect x="101.331" y="222.414" style="fill:#E0E0E0;" width="37.111" height="11.526"/>
	<rect x="234.283" y="286.43" style="fill:#F0F0F0;" width="37.111" height="11.526"/>
	<g>
		<rect x="659.299" y="279.529" style="fill:#EBEBEB;" width="37.111" height="11.526"/>
		<rect x="608.901" y="229.21" style="fill:#F0F0F0;" width="37.111" height="11.526"/>
	</g>
	<g>
		<rect x="270.442" y="80.389" style="fill:#EBEBEB;" width="37.111" height="11.526"/>
		<rect x="250.559" y="92.045" style="fill:#F0F0F0;" width="39.421" height="11.526"/>
	</g>
	<rect x="479.667" y="95.307" style="fill:#E0E0E0;" width="37.111" height="11.526"/>
	<rect x="496.868" y="105.897" style="fill:#F0F0F0;" width="37.111" height="11.526"/>
	<g>
		<rect x="112.885" y="74.461" style="fill:#E0E0E0;" width="72.489" height="115.187"/>
		<rect x="118.336" y="79.832" style="opacity:0.6;fill:#FFFFFF;enable-background:new    ;" width="61.588" height="104.444"/>
		<rect x="122.407" y="83.596" style="fill:#FFFFFF;" width="53.445" height="96.916"/>
		<rect x="134.689" y="96.308" style="fill:#E6E6E6;" width="29.599" height="70.38"/>
		<path style="opacity:0.6;fill:#FFFFFF;enable-background:new    ;" d="M125.534,85.712c0,0-0.955,70.303,0.477,70.064
			c1.432-0.239,38.122-69.224,38.276-69.94L125.534,85.712z"/>
	</g>
	<g>
		<rect x="567.784" y="76.577" style="fill:#E0E0E0;" width="72.489" height="115.187"/>
		<rect x="573.235" y="81.949" style="opacity:0.6;fill:#FFFFFF;enable-background:new    ;" width="61.588" height="104.444"/>
		<rect x="577.306" y="85.712" style="fill:#FFFFFF;" width="53.445" height="96.916"/>
		<rect x="589.589" y="98.424" style="fill:#E6E6E6;" width="29.599" height="70.38"/>
		<path style="opacity:0.6;fill:#FFFFFF;enable-background:new    ;" d="M580.433,87.828c0,0-0.955,70.303,0.477,70.064
			c1.432-0.239,38.122-69.224,38.276-69.94L580.433,87.828z"/>
	</g>
	<g>
		<rect x="352.424" y="75.018" style="fill:#E0E0E0;" width="72.489" height="115.187"/>
		<rect x="357.875" y="80.389" style="opacity:0.6;fill:#FFFFFF;enable-background:new    ;" width="61.588" height="104.444"/>
		<rect x="361.946" y="84.153" style="fill:#FFFFFF;" width="53.445" height="96.916"/>
		<rect x="374.228" y="96.864" style="fill:#E6E6E6;" width="29.598" height="70.38"/>
		<path style="opacity:0.6;fill:#FFFFFF;enable-background:new    ;" d="M365.073,86.269c0,0-0.955,70.303,0.477,70.064
			c1.432-0.239,38.122-69.224,38.276-69.94L365.073,86.269z"/>
	</g>
	<g>
		<g>
			<g>
				<g>
					<g>
						<g>
							<path style="fill:#E0E0E0;" d="M673.734,323.365H492.988c-3.232,0-5.862-2.63-5.862-5.862V54.229
								c0-3.232,2.63-5.862,5.862-5.862h180.746c3.232,0,5.862,2.629,5.862,5.862v263.273
								C679.596,320.735,676.966,323.365,673.734,323.365z M492.988,48.618c-3.095,0-5.612,2.518-5.612,5.612v263.273
								c0,3.095,2.518,5.612,5.612,5.612h180.746c3.095,0,5.612-2.518,5.612-5.612V54.229c0-3.094-2.518-5.612-5.612-5.612H492.988z
								"/>
						</g>
					</g>
					<g>
						<g>
							<path style="fill:#E0E0E0;" d="M465.306,323.365H284.56c-3.232,0-5.862-2.63-5.862-5.862V54.229
								c0-3.232,2.629-5.862,5.862-5.862h180.747c3.232,0,5.862,2.629,5.862,5.862v263.273
								C471.168,320.735,468.538,323.365,465.306,323.365z M284.56,48.618c-3.094,0-5.612,2.518-5.612,5.612v263.273
								c0,3.095,2.518,5.612,5.612,5.612h180.747c3.095,0,5.612-2.518,5.612-5.612V54.229c0-3.094-2.518-5.612-5.612-5.612H284.56z"
								/>
						</g>
					</g>
				</g>
				<g>
					<g>
						<g>
							<path style="fill:#E0E0E0;" d="M257.012,323.365H76.266c-3.232,0-5.862-2.63-5.862-5.862V54.229
								c0-3.232,2.629-5.862,5.862-5.862h180.746c3.232,0,5.862,2.629,5.862,5.862v263.273
								C262.875,320.735,260.245,323.365,257.012,323.365z M76.266,48.618c-3.094,0-5.612,2.518-5.612,5.612v263.273
								c0,3.095,2.518,5.612,5.612,5.612h180.746c3.095,0,5.612-2.518,5.612-5.612V54.229c0-3.094-2.518-5.612-5.612-5.612H76.266z"
								/>
						</g>
					</g>
				</g>
			</g>
			<g>
				<g>
					<rect y="384.435" style="fill:#E0E0E0;" width="750" height="0.12"/>
				</g>
			</g>
		</g>
		<g>
			<rect x="653.626" y="413.811" style="fill:#EBEBEB;" width="55.729" height="0.421"/>
			<rect x="495.044" y="418.376" style="fill:#EBEBEB;" width="14.627" height="0.421"/>
			<rect x="40.645" y="401.013" style="fill:#EBEBEB;" width="72.674" height="0.421"/>
			<rect x="128.299" y="401.013" style="fill:#EBEBEB;" width="10.656" height="0.421"/>
			<rect x="173.586" y="408.117" style="fill:#EBEBEB;" width="157.613" height="0.421"/>
		</g>
	</g>
</g>
<g id="Background_simple" style="display:none;">
	<g style="display:inline;">
		<path style="fill:#407BFF;" d="M271.936,37.165c-35.087,2.161-68.921,6.762-98.929,13.979
			c-35.367,8.506-71.504,21.757-60.831,39.09c19.705,31.999,114.233,32.582,95.359,54.097
			c-21.379,24.371-7.042,52.958,88.889,60.907c182.206,15.099,402.466-73.249,340.603-121.795
			C598.513,53.221,458.24,25.691,271.936,37.165z"/>
		<path style="opacity:0.9;fill:#FFFFFF;" d="M271.936,37.165c-35.087,2.161-68.921,6.762-98.929,13.979
			c-35.367,8.506-71.504,21.757-60.831,39.09c19.705,31.999,114.233,32.582,95.359,54.097
			c-21.379,24.371-7.042,52.958,88.889,60.907c182.206,15.099,402.466-73.249,340.603-121.795
			C598.513,53.221,458.24,25.691,271.936,37.165z"/>
	</g>
</g>
<g id="Shadow">
	<g>
		<g>
			<path style="fill:#F5F5F5;" d="M705.283,436.222c0,6.689-147.873,12.112-330.283,12.112s-330.283-5.423-330.283-12.112
				c0-6.689,147.873-12.112,330.283-12.112S705.283,429.532,705.283,436.222z"/>
		</g>
	</g>
</g>
<g id="Lines">
	<g>
		<g>
			<g>
				<path style="fill:#263238;" d="M353.711,53.188c2.156,1.741,4.386,3.386,6.542,5.127c0.372,0.301,0.906-0.227,0.53-0.53
					c-2.156-1.741-4.386-3.386-6.542-5.127C353.869,52.357,353.335,52.885,353.711,53.188L353.711,53.188z"/>
			</g>
		</g>
		<g>
			<g>
				<path style="fill:#263238;" d="M375.366,56.506c0-4.553,0-9.105,0-13.658c0-0.483-0.75-0.483-0.75,0c0,4.553,0,9.106,0,13.658
					C374.616,56.989,375.366,56.99,375.366,56.506L375.366,56.506z"/>
			</g>
		</g>
		<g>
			<g>
				<path style="fill:#263238;" d="M389.622,58.755c1.928-2.002,3.857-4.004,5.785-6.007c0.335-0.348-0.195-0.879-0.53-0.53
					c-1.928,2.002-3.857,4.004-5.785,6.007C388.757,58.573,389.286,59.104,389.622,58.755L389.622,58.755z"/>
			</g>
		</g>
	</g>
</g>
<g id="Light_Bulb">
	<g>
		<g>
			<path style="fill:#263238;" d="M358.743,137.433c0,0,2.022,8.183,3.201,9.742c1.178,1.559,25.324,1.176,26.333,0
				c1.009-1.176,2.981-9.742,2.981-9.742H358.743z"/>
			<path style="opacity:0.2;fill:#FFFFFF;" d="M358.743,137.433c0,0,2.022,8.183,3.201,9.742c1.178,1.559,25.324,1.176,26.333,0
				c1.009-1.176,2.981-9.742,2.981-9.742H358.743z"/>
			<g>
				<g>
					<g>
						<path style="fill:#407BFF;" d="M375.375,62.162c-17.598-0.207-32.032,13.892-32.238,31.489
							c-0.112,9.549,4.065,18.646,11.381,24.785c1.346,1.11,3.402,2.453,3.356,5.237c-0.002,0.085,0.141,6.964,0.141,6.964h33.517
							c0,0,0.142-7.147,0.142-7.228c0-2.451,1.897-3.508,3.294-4.612c7.414-5.944,11.778-14.894,11.896-24.396
							C407.07,76.803,392.973,62.369,375.375,62.162z"/>
						<path style="opacity:0.2;fill:#FFFFFF;enable-background:new    ;" d="M391.215,75.894c0,6.204-7.261,11.245-16.264,11.245
							c-9.003,0-16.264-5.042-16.264-11.245c0-6.204,7.261-11.257,16.264-11.257C383.955,64.637,391.215,69.679,391.215,75.894z"/>
					</g>
					<path style="fill:none;stroke:#FFFFFF;stroke-width:0.5;stroke-miterlimit:10;" d="M350.72,106.14
						c-2.773-4.755-3.875-10.463-3.071-15.909c0.804-5.446,3.508-10.592,7.536-14.343"/>
					<path style="fill:none;stroke:#263238;stroke-miterlimit:10;" d="M368.108,123.673c2.444-8.32,2.874-17.398,1.228-25.97
						c-0.266-1.385-0.891-3.054-2.134-3.085c-1.112-0.028-1.843,1.339-2.083,2.578c-0.848,4.379,1.422,8.828,4.326,11.852
						c1.572,1.637,3.478,3.065,5.606,3.17c2.135,0.105,4.173-1.159,5.719-2.842c2.958-3.22,4.432-8.265,3.36-12.766
						c-0.453-1.902-1.804-3.948-3.503-3.585c-1.024,0.219-1.772,1.3-2.036,2.449c-0.264,1.148-0.134,2.362,0.016,3.537
						c1.082,8.472,3.15,16.779,6.133,24.636"/>
				</g>
			</g>
			<path style="fill:#263238;" d="M393.784,132.296h-37.848c-0.874,0-1.583-0.709-1.583-1.583v-0.879
				c0-0.874,0.709-1.583,1.583-1.583h37.848c0.874,0,1.583,0.709,1.583,1.583v0.879
				C395.368,131.587,394.659,132.296,393.784,132.296z"/>
			<path style="opacity:0.3;fill:#FFFFFF;" d="M393.784,132.296h-37.848c-0.874,0-1.583-0.709-1.583-1.583v-0.879
				c0-0.874,0.709-1.583,1.583-1.583h37.848c0.874,0,1.583,0.709,1.583,1.583v0.879
				C395.368,131.587,394.659,132.296,393.784,132.296z"/>
			<path style="fill:#263238;" d="M393.141,136.21H356.58c-0.863,0-1.562-0.699-1.562-1.562v-0.79c0-0.863,0.699-1.562,1.562-1.562
				h36.562c0.862,0,1.562,0.699,1.562,1.562v0.79C394.703,135.51,394.004,136.21,393.141,136.21z"/>
			<path style="opacity:0.3;fill:#FFFFFF;" d="M393.141,136.21H356.58c-0.863,0-1.562-0.699-1.562-1.562v-0.79
				c0-0.863,0.699-1.562,1.562-1.562h36.562c0.862,0,1.562,0.699,1.562,1.562v0.79C394.703,135.51,394.004,136.21,393.141,136.21z"
				/>
			<path style="fill:#263238;" d="M391.6,139.995h-33.008c-0.862,0-1.562-0.699-1.562-1.562v-0.79c0-0.863,0.699-1.562,1.562-1.562
				H391.6c0.863,0,1.562,0.699,1.562,1.562v0.79C393.162,139.296,392.463,139.995,391.6,139.995z"/>
			<path style="opacity:0.3;fill:#FFFFFF;" d="M391.6,139.995h-33.008c-0.862,0-1.562-0.699-1.562-1.562v-0.79
				c0-0.863,0.699-1.562,1.562-1.562H391.6c0.863,0,1.562,0.699,1.562,1.562v0.79C393.162,139.296,392.463,139.995,391.6,139.995z"
				/>
		</g>
	</g>
</g>
<g id="Speech_Bubble_2">
	<g>
		<g>
			<g>
				<g>
					<path style="fill:#407BFF;" d="M570.856,110.68c-9.565-7.176-23.27-4.933-30.005,5.142c-5.935,8.879-4.092,21.101,4.189,27.845
						c7.216,5.877,17.036,6.114,24.398,1.482l5.016,1.444c0.493,0.142,0.974-0.259,0.923-0.77l-0.557-5.548
						c0.072-0.092,0.152-0.173,0.222-0.267C581.984,130.753,580.11,117.623,570.856,110.68z"/>
				</g>
				<path style="fill:none;stroke:#407BFF;stroke-linecap:round;stroke-linejoin:round;stroke-miterlimit:10;" d="M534.249,125.266
					c-0.348-6.802,2.978-13.682,8.524-17.636"/>
				<path style="fill:none;stroke:#407BFF;stroke-linecap:round;stroke-linejoin:round;stroke-miterlimit:10;" d="M545.38,105.907
					c0.799-0.664,1.736-1.161,2.734-1.449"/>
			</g>
		</g>
		<g>
			<polygon style="fill:#FFFFFF;" points="557.362,138.427 546.714,130.498 549.481,126.782 556.621,132.099 566.432,120.395 
				569.982,123.371 			"/>
		</g>
	</g>
</g>
<g id="Speech_Bubble_1">
	<g>
		<g>
			<g>
				<g>
					<path style="fill:#407BFF;" d="M250.59,139.475c6.288-10.171,2.823-23.619-7.816-29.422
						c-9.376-5.114-21.383-2.181-27.356,6.673c-5.205,7.715-4.559,17.517,0.715,24.432l-0.988,5.126
						c-0.097,0.504,0.346,0.947,0.85,0.85l5.476-1.053c0.098,0.063,0.186,0.136,0.286,0.197
						C231.597,152.361,244.507,149.315,250.59,139.475z"/>
				</g>
				<path style="fill:none;stroke:#407BFF;stroke-linecap:round;stroke-linejoin:round;stroke-miterlimit:10;" d="M232.776,104.326
					c6.743-0.957,13.895,1.737,18.33,6.906"/>
				<path style="fill:none;stroke:#407BFF;stroke-linecap:round;stroke-linejoin:round;stroke-miterlimit:10;" d="M253.056,113.674
					c0.733,0.736,1.312,1.625,1.688,2.593"/>
			</g>
		</g>
		<g>
			<polygon style="fill:#FFFFFF;" points="231.79,138.427 221.142,130.498 223.909,126.782 231.049,132.099 240.86,120.395 
				244.41,123.371 			"/>
		</g>
	</g>
</g>
<g id="Gear">
	<path style="fill:#407BFF;" d="M390.594,309.031c-1.887,0.27-3.665,0.902-5.267,1.816l-2.107-1.977l-4.175,3.686l1.701,2.335
		c-1.105,1.475-1.951,3.162-2.454,5.002l-2.879,0.092l-0.345,5.559l2.845,0.447c0.271,1.887,0.902,3.666,1.816,5.267l-1.977,2.107
		l3.687,4.174l2.335-1.7c1.476,1.105,3.163,1.951,5.002,2.454l0.092,2.879l5.559,0.345l0.447-2.845
		c1.887-0.271,3.665-0.902,5.267-1.816l2.107,1.976l4.175-3.686l-1.7-2.335c1.105-1.476,1.951-3.163,2.453-5.002l2.879-0.092
		l0.345-5.559l-2.845-0.447c-0.271-1.888-0.902-3.666-1.815-5.267l1.976-2.107l-3.687-4.174l-2.335,1.701
		c-1.476-1.105-3.162-1.952-5.002-2.453l-0.092-2.879l-5.559-0.345L390.594,309.031z M400.259,324.319
		c-0.258,4.155-3.836,7.316-7.992,7.057c-4.156-0.258-7.316-3.837-7.058-7.992c0.258-4.156,3.836-7.316,7.992-7.057
		C397.357,316.585,400.517,320.163,400.259,324.319z"/>
</g>
<g id="Character_2">
	<g>
		<path style="fill:#FFB463;" d="M544.328,231.903c0,0-4.159-2.214-5.448-3.94c-1.289-1.727-1.507-1.518-1.605-1.556
			c-0.098-0.039-5.313-0.23-6.075-0.823c-0.762-0.593-0.902-1.62-0.348-1.764c0.554-0.145,5.057,0.536,6.22,0.337
			c1.163-0.199-0.72-0.644-3.821-0.979c-3.101-0.335-5.759-0.993-5.562-2.475c0.197-1.482,7.319,0.474,9.245,0.348
			c1.926-0.126-1.653-0.513-4.336-1.452c-2.683-0.939-4.933-1.256-4.361-2.773c0.572-1.516,9.239,1.861,10.714,1.444
			c1.474-0.416,0.014-1.419-1.43-2.234c-1.444-0.815-4.277-0.796-4.843-1.832c-0.566-1.036,0.052-1.517,1.088-1.563
			c1.035-0.046,5.904,1.027,7.075,1.961c0,0,0.598-1.235,1.317-1.111c0.72,0.124,1.127,3.064,1.88,4.083
			c0.753,1.019,3.419,7.984,3.419,7.984L544.328,231.903z"/>
		<path style="fill:#407BFF;" d="M596.87,195.734c-6.871,6.807-15.505,33.794-15.197,34.68c0.309,0.886-33.677-7.3-33.677-7.3
			s-5.942,10.132-3.265,11.948c2.677,1.815,42.586,15.703,46.444,10.328c3.182-4.434,11.568-30.924,14.167-41.454L596.87,195.734z"
			/>
		<path style="opacity:0.7;fill:#FFFFFF;" d="M596.87,195.734c-6.871,6.807-15.505,33.794-15.197,34.68
			c0.309,0.886-33.677-7.3-33.677-7.3s-5.942,10.132-3.265,11.948c2.677,1.815,42.586,15.703,46.444,10.328
			c3.182-4.434,11.568-30.924,14.167-41.454L596.87,195.734z"/>
	</g>
	<g>
		<g>
			<path style="fill:#FFBCB4;" d="M610.046,268.104c0,0-1.563,49.351-0.991,81.834c4.755,25.53,39.781,69.646,36.309,76.564
				c0.117,1.547,7.542-3.758,8.998-4.694c0,0-7.659-49.349-23.492-76.431c8.675-32.728,2.885-78.749,2.885-78.749L610.046,268.104z"
				/>
			<path style="opacity:0.3;" d="M608.981,344.612c0,0,15.074,2.225,23.132-4.465l0.388-1.899l-23.573,3.359L608.981,344.612z"/>
			<path style="fill:#FFBCB4;" d="M615.273,257.857c0,0,29.677,51.732,42.886,77.505c13.863,27.077,34.997,73.168,38.542,92.704
				c1.879,0.51,4.882-0.191,7.838-2.147c0,0-4.693-67.624-26.069-94.813c-12.93-69.492-35.381-80.869-35.381-80.869L615.273,257.857
				z"/>
			<polygon style="opacity:0.3;" points="655.792,330.799 657.614,334.302 677.17,324.458 676.515,321.488 			"/>
			<g>
				<path style="fill:#263238;" d="M704.449,437.047h-1.859l-0.52-2.302l-6.164,2.744h-15.604c0,0-2.484-2.497,4.954-4.486
					c0.364-0.099,0.717-0.234,1.053-0.403c3.966-1.859,9.61-8.14,9.61-8.14h8.569c0.261,0.396,0.495,0.809,0.702,1.235
					C706.139,427.62,707.726,431.573,704.449,437.047z"/>
				<path style="fill:#FFBCB4;" d="M705.177,425.786L705.177,425.786c-1.131-1.3-6.281,4.278-10.052,6.164
					c-3.368,1.677-7.152,2.419-8.829,0.715c3.966-1.86,10.208-9.974,10.208-9.974h6.892
					C703.396,422.692,704.839,424.928,705.177,425.786z"/>
			</g>
			<path style="fill:#263238;" d="M655.249,435.813h-1.859l-0.52-2.302l-6.164,2.744h-15.604c0,0-2.484-2.497,4.954-4.486
				c0.364-0.099,0.717-0.234,1.053-0.403c3.966-1.859,9.609-8.14,9.609-8.14h8.569c0.261,0.396,0.495,0.809,0.702,1.235
				C656.978,426.385,658.539,430.339,655.249,435.813z"/>
			<path style="fill:#FFBCB4;" d="M655.977,424.552L655.977,424.552c-1.131-1.3-6.281,4.278-10.052,6.164
				c-3.368,1.677-7.152,2.419-8.829,0.715c3.966-1.859,10.208-9.974,10.208-9.974h6.892
				C654.195,421.457,655.574,423.694,655.977,424.552z"/>
			<path style="fill:#263238;" d="M643.608,239.945l-0.21-2.274c-12.48,4.208-22.683,8.221-35.767,9.725l0.733,4.114
				c-0.805,7.404-0.469,68.134-0.469,90.371c17.571,0.31,47.451-9.481,70.825-21C676.67,310.891,663.916,249.1,643.608,239.945z"/>
			<g>
				<g>
					<path d="M643.658,272.232c-2.207,14.899-3.551,29.915-4.014,44.97c-0.015,0.483,0.735,0.482,0.75,0
						c0.461-14.987,1.79-29.939,3.987-44.771C644.451,271.959,643.729,271.755,643.658,272.232L643.658,272.232z"/>
				</g>
			</g>
		</g>
		<g>
			<path style="fill:#263238;" d="M622.909,183.782c-1.723-7.117-1.062-14.691-3.177-21.701c-1.835-6.082-5.888-11.593-11.49-14.588
				c-5.347-2.859-12.099-3.195-17.484-0.453c-3.717,1.004-6.697,4.236-8.272,7.829c-1.791,4.085-2.135,8.63-2.645,13.062
				c-0.509,4.432-1.265,8.998-3.72,12.721c-1.239,1.878-2.865,3.468-4.206,5.275c-1.341,1.807-2.421,3.954-2.298,6.201
				c0.123,2.247,1.788,4.515,4.031,4.681c2.016,0.15,4.013-1.333,5.948-0.747c1.59,0.482,2.441,2.143,3.39,3.508
				c2.755,3.965,7.488,6.223,12.267,6.906c4.779,0.683,9.646-0.04,14.373-1.02c3.121-0.647,6.269-1.426,9.029-3.019
				c2.761-1.593,5.125-4.118,5.863-7.219C625.42,191.431,623.825,187.566,622.909,183.782z"/>
		</g>
		<polygon style="opacity:0.3;" points="596.97,225.83 593.531,215.875 591.912,224.907 		"/>
		<path style="fill:#407BFF;" d="M592.58,205.402c-0.422,8.034,2.026,15.345,4.389,20.427c2.89,6.704,6.767,28.999,12.07,28.373
			c4.565,0.757,23.163-7.291,34.636-13.472c5.096-3.889-10.289-10.62-10.427-42.876c-0.004-5.569-5.787-13.771-11.397-12.205
			c-1.496,0.42-3.073,0.885-4.667,1.413c-5.656,1.743-11.189,3.864-16.562,6.349c-1.737,0.847,1.704-0.932,0,0
			C594.484,196.614,593.249,198.985,592.58,205.402z"/>
		<path style="opacity:0.7;fill:#FFFFFF;" d="M592.58,205.402c-0.422,8.034,2.026,15.345,4.389,20.427
			c2.89,6.704,6.767,28.999,12.07,28.373c4.565,0.757,23.163-7.291,34.636-13.472c5.096-3.889-10.289-10.62-10.427-42.876
			c-0.004-5.569-5.787-13.771-11.397-12.205c-1.496,0.42-3.073,0.885-4.667,1.413c-5.656,1.743-11.189,3.864-16.562,6.349
			c-1.737,0.847,1.704-0.932,0,0C594.484,196.614,593.249,198.985,592.58,205.402z"/>
		<path style="fill:#FFBCB4;" d="M609.084,169.58c0.442,5.885,1.667,15.717,6.444,18.067c0,0-1.75,4.932-9.702,9.088
			c-0.027,3.299,0.127,6.597,0.462,9.878c0,0-3.555-6.535-3.338-9.04c-9.41,2.448-3.669-3.35-3.669-3.35
			c5.621-3.604,4.193-8.105,1.991-12.03L609.084,169.58z"/>
		<path style="opacity:0.2;enable-background:new    ;" d="M606.024,176.342l-3.87,7.889c0.622,0.854,0.931,2.507,0.931,2.507
			c2.076-1.361,4.834-5.067,4.211-7.59C607.048,178.144,606.616,177.192,606.024,176.342z"/>
		<path style="fill:#FFBCB4;" d="M610.583,159.201c1.429,9.26,2.237,13.14-1.24,19.061c-5.236,8.902-16.643,9.215-20.76,0.7
			c-3.703-7.655-5.439-21.524,2.486-27.544c5.141-4.196,12.71-3.429,16.906,1.712C609.394,154.87,610.298,156.973,610.583,159.201z"
			/>
		<path style="fill:#263238;" d="M600.884,155.572c6.984,4.494,6.808,34.722,16.504,30.821c9.696-3.901-6.368-36.009-13.334-37.102
			C597.088,148.198,600.884,155.572,600.884,155.572z"/>
		<path style="fill:#263238;" d="M604.069,149.41c0.87,6.355,0.456,8.225-5.383,8.485c0.365-1.468,0.207-3.016-0.447-4.38
			c-0.014,1.612-0.656,3.155-1.788,4.302c-1.624-0.104-3.255-0.035-4.866,0.205c-0.016-0.922-0.238-1.828-0.649-2.653
			c-0.059,1.141-0.452,2.239-1.13,3.159c-1.611,0.587-3.114,1.436-4.449,2.513C583.164,154.768,591.349,144.298,604.069,149.41z"/>
		<path style="fill:#FFBCB4;" d="M613.624,165.605c-0.166,1.802-1.085,3.45-2.532,4.538c-1.832,1.255-3.522-0.754-3.668-3.309
			c-0.137-2.297,0.643-5.745,2.807-5.904C612.396,160.771,613.909,163.215,613.624,165.605z"/>
		<g>
			<path style="fill:#263238;" d="M597.95,165.729c0.264,0.849,0.009,1.724-0.571,1.955c-0.58,0.23-1.264-0.271-1.528-1.12
				c-0.264-0.849-0.009-1.725,0.571-1.955C597.001,164.378,597.685,164.879,597.95,165.729z"/>
			<path style="fill:#263238;" d="M599.02,161.161c-0.113,0.044-0.241,0.043-0.354-0.016c-1.764-0.925-3.228-0.036-3.245-0.026
				c-0.217,0.132-0.491,0.064-0.61-0.162c-0.118-0.225-0.037-0.518,0.182-0.655c0.076-0.047,1.913-1.164,4.103-0.016
				c0.218,0.115,0.299,0.4,0.181,0.637C599.22,161.037,599.126,161.119,599.02,161.161z"/>
			<path style="fill:#263238;" d="M584.955,163.717c-0.115-0.001-0.227-0.044-0.31-0.13c-0.171-0.178-0.153-0.47,0.039-0.652
				c1.926-1.83,4.007-1.446,4.095-1.428c0.248,0.049,0.395,0.291,0.326,0.541c-0.068,0.249-0.323,0.412-0.571,0.365
				c-0.081-0.016-1.701-0.29-3.232,1.165C585.203,163.672,585.077,163.719,584.955,163.717z"/>
			<path style="fill:#FF7168;" d="M591.293,166.372c0,0-0.468,3.82-1.48,6.404c-0.177,0.452,0.15,0.946,0.634,0.984
				c1.244,0.098,2.458-0.648,2.458-0.648L591.293,166.372z"/>
			<path style="fill:#263238;" d="M596.633,164.512l-2.22,0.28C594.413,164.791,597.197,165.771,596.633,164.512z"/>
			<path style="fill:#263238;" d="M589.809,167.732c0.264,0.849,0.009,1.724-0.572,1.955c-0.58,0.23-1.264-0.271-1.528-1.12
				c-0.265-0.849-0.009-1.725,0.571-1.955C588.86,166.381,589.545,166.883,589.809,167.732z"/>
			<path style="fill:#263238;" d="M588.372,166.592l-2.219,0.28C586.152,166.872,588.125,167.881,588.372,166.592z"/>
			<g style="opacity:0.3;">
				<g>
					<path d="M610.345,163.109c0.684,0.352,1.023,1.107,1.055,1.852c0.042,0.987-0.388,1.929-0.785,2.809
						c-0.084,0.186-0.052,0.401,0.135,0.513c0.16,0.096,0.43,0.05,0.513-0.135c0.468-1.039,0.982-2.164,0.877-3.333
						c-0.085-0.952-0.538-1.902-1.417-2.354C610.295,162.241,609.915,162.888,610.345,163.109L610.345,163.109z"/>
				</g>
			</g>
		</g>
		<g>
			<path style="fill:#263238;" d="M593.814,175.891c1.012,0.774,2.492,2.446,2.492,2.446c0.176-0.107,0.351-0.214,0.521-0.329
				c2.345-1.508,2.935-2.982,2.877-4.159c-0.034-0.644-0.27-1.201-0.518-1.621c-0.281-0.489-0.592-0.773-0.592-0.773
				c-0.766,1.542-2.844,3.116-3.988,3.91C594.129,175.703,593.814,175.891,593.814,175.891z"/>
			<path style="fill:#FFFFFF;" d="M594.605,175.365l0.753,0.702c2.205-1.426,3.567-2.725,3.828-3.839
				c-0.281-0.489-0.592-0.773-0.592-0.773C597.828,172.997,595.75,174.571,594.605,175.365z"/>
			<path style="fill:#FF3F3E;" d="M596.826,178.008c2.345-1.508,2.935-2.982,2.877-4.159c-0.779,0.544-1.658,1.288-2.272,2.19
				C596.959,176.727,596.823,177.409,596.826,178.008z"/>
		</g>
		<path style="opacity:0.3;" d="M601.921,242.189l0.655,2.052c0,0,15.464,1.102,18.237-0.87
			c2.774-1.971,10.402-38.106,10.402-38.106s-14.105,33.083-14.75,33.777C615.821,239.736,601.921,242.189,601.921,242.189z"/>
		<g style="opacity:0.3;">
			<g>
				<path d="M591.469,147.883c-4.918,1.943-8.379,6.808-8.565,12.1c-0.017,0.483,0.733,0.482,0.75,0
					c0.174-4.931,3.419-9.561,8.015-11.376C592.112,148.431,591.919,147.705,591.469,147.883L591.469,147.883z"/>
			</g>
		</g>
		<g>
			<path style="fill:#407BFF;" d="M421.833,167.029c-9.736,6.49-17.912,14.688-24.365,23.987l-16.893-5.374l-13.369,31.457
				l15.595,8.434c-2.218,11.094-2.442,22.673-0.358,34.188l-15.7,8.123l12.792,31.696l16.94-5.049
				c6.491,9.736,14.689,17.914,23.987,24.364l-5.374,16.895l31.457,13.366l8.433-15.591c11.099,2.215,22.676,2.441,34.19,0.357
				l8.123,15.7l31.697-12.791l-5.049-16.94c9.736-6.491,17.913-14.689,24.363-23.986l16.892,5.371l13.37-31.455l-15.593-8.433
				c2.215-11.096,2.44-22.674,0.355-34.188l15.7-8.123l-12.792-31.696l-16.94,5.049c-6.492-9.737-14.689-17.917-23.986-24.366
				l5.372-16.894l-31.458-13.366l-8.432,15.593c-11.097-2.216-22.674-2.443-34.188-0.358l-8.123-15.7l-31.698,12.792
				L421.833,167.029z M515.794,226.124c9.562,23.696-1.895,50.66-25.592,60.224c-23.699,9.564-50.663-1.897-60.225-25.592
				c-9.564-23.698,1.895-50.66,25.593-60.224C479.267,190.969,506.229,202.426,515.794,226.124z"/>
			<g>
				<g style="opacity:0.3;">
					<path style="fill:#FFFFFF;" d="M430.749,180.551c-1.132,5.055-1.957,10.596,0.385,15.217c2.864,5.65,9.118,7.855,15.491,9.58
						c2.744-1.888,5.727-3.517,8.945-4.816c7.448-3.006,15.218-3.932,22.669-3.057c-1.996-11.804,4.71-24.357,13.26-33.3
						c6.916-7.234,15.115-13.263,22.228-20.251l-14.503-6.162l-8.432,15.593c-11.097-2.216-22.674-2.443-34.188-0.358l-8.123-15.7
						l-1.293,0.522C439.658,151.156,434.095,165.604,430.749,180.551z"/>
				</g>
				<g style="opacity:0.3;">
					<path style="fill:#FFFFFF;" d="M519.454,290.114c0.834-10.775,0.08-21.889-2.565-32.393
						c-4.084,12.561-13.482,23.297-26.688,28.627c-0.06,0.024-0.12,0.044-0.18,0.067c-2.668,6.141-6.36,11.828-10.989,16.677
						c-15.407,16.14-38.92,22.396-56.361,35.879l23.873,10.144l8.433-15.591c11.099,2.215,22.676,2.441,34.19,0.357l8.123,15.7
						l7.679-3.099C511.89,328.205,517.951,309.532,519.454,290.114z"/>
				</g>
			</g>
		</g>
		<path style="fill:#FFBCB4;" d="M574.529,231.903c0,0-4.159-2.214-5.448-3.94c-1.289-1.727-1.507-1.518-1.605-1.556
			c-0.098-0.039-5.313-0.23-6.075-0.823c-0.762-0.593-0.902-1.62-0.348-1.764c0.554-0.145,5.057,0.536,6.22,0.337
			c1.163-0.199-0.719-0.644-3.821-0.979c-3.101-0.335-5.759-0.993-5.562-2.475c0.197-1.482,7.319,0.474,9.245,0.348
			c1.926-0.126-1.653-0.513-4.336-1.452c-2.683-0.939-4.933-1.256-4.36-2.773c0.572-1.516,9.239,1.861,10.714,1.444
			c1.474-0.416,0.014-1.419-1.43-2.234s-4.277-0.796-4.843-1.832c-0.566-1.036,0.052-1.517,1.088-1.563
			c1.035-0.046,5.904,1.027,7.075,1.961c0,0,0.597-1.235,1.317-1.111s1.127,3.064,1.88,4.083c0.753,1.019,3.419,7.984,3.419,7.984
			L574.529,231.903z"/>
		<g>
			<path style="fill:#407BFF;" d="M625.769,186.444c2.517,2.15,7.126,7.275,6.877,10.575c-0.777,10.3-10.522,40.384-13.705,44.818
				c-3.857,5.375-41.332-4.96-44.009-6.775c-2.677-1.815,3.265-11.948,3.265-11.948s29.811,3.712,29.502,2.825
				c-0.308-0.886,5.413-24.387,10.178-32.357C622.644,185.613,623.299,184.382,625.769,186.444
				C625.794,186.465,625.745,186.424,625.769,186.444z"/>
			<path style="opacity:0.7;fill:#FFFFFF;" d="M625.769,186.444c2.517,2.15,7.126,7.275,6.877,10.575
				c-0.777,10.3-10.522,40.384-13.705,44.818c-3.857,5.375-41.332-4.96-44.009-6.775c-2.677-1.815,3.265-11.948,3.265-11.948
				s29.811,3.712,29.502,2.825c-0.308-0.886,5.413-24.387,10.178-32.357C622.644,185.613,623.299,184.382,625.769,186.444
				C625.794,186.465,625.745,186.424,625.769,186.444z"/>
			<g style="opacity:0.3;">
				<g>
					<path d="M608.061,226.04c1.724-7.325,3.647-14.615,5.884-21.801c0.979-3.143,2.011-6.28,3.245-9.334
						c0.737-1.824,1.514-4.027,2.932-5.452c0.341-0.342-0.189-0.873-0.53-0.53c-1.342,1.348-2.103,3.332-2.824,5.051
						c-1.284,3.062-2.336,6.222-3.333,9.387c-2.333,7.404-4.318,14.924-6.096,22.479C607.227,226.31,607.95,226.51,608.061,226.04
						L608.061,226.04z"/>
				</g>
			</g>
			<g style="opacity:0.3;">
				<g>
					<path d="M607.51,226.475c1.872,0.863,3.361,2.39,4.18,4.281c0.081,0.186,0.353,0.228,0.513,0.135
						c0.192-0.112,0.215-0.327,0.135-0.513c-0.863-1.991-2.479-3.642-4.45-4.55c-0.184-0.085-0.404-0.052-0.513,0.134
						C607.281,226.123,607.325,226.389,607.51,226.475L607.51,226.475z"/>
				</g>
			</g>
		</g>
		<g>
			<g>
				<path d="M574.438,235.297c2.436,1.138,5.09,1.904,7.649,2.702c3.75,1.169,7.553,2.246,11.421,2.952
					c0.472,0.086,0.674-0.637,0.199-0.723c-3.781-0.69-7.498-1.736-11.166-2.873c-2.58-0.799-5.27-1.559-7.724-2.706
					C574.382,234.446,574,235.092,574.438,235.297L574.438,235.297z"/>
			</g>
		</g>
	</g>
</g>
<g id="Character_1">
	<g>
		<g>
			<g>
				<g>
					<g>
						<g>
							<g>
								<polygon style="fill:#263238;" points="85.042,406.68 82.839,423.129 93.041,423.465 104.208,399.234 								"/>
							</g>
						</g>
					</g>
				</g>
				<g>
					<g>
						<g>
							<g>
								<g>
									<g>
										<path style="fill:#263238;" d="M84.135,421.294c1.315,1.293,4.263,1.193,5.616,0.197l0.096-1.916
											c0.286-1.61,0.889-2.357,2.621-2.086c0.849,0.132,1.89,1.196,2.551,2.762c1.184,2.808,2.63,3.97,2.63,3.97
											s7.648,4.082,10.408,5.016c1.647,0.557,3.845,1.389,4.985,3.201c0.325,0.518,0.615,1.129,0.86,1.848
											c0.201,0.59,0.159,1.909,0.158,1.937l-19.665-0.577c0,0-1.972-1.228-2.825-1.222c-1.518,0.01-2.235,1.312-2.235,1.312
											l-7.152-0.157c0,0-0.105-1.107-0.256-2.719l-0.002-0.001c-0.068-0.726-0.145-1.554-0.227-2.428
											c-0.352-3.753,0.247-8.194,0.156-9.256C81.693,419.313,84.135,421.294,84.135,421.294z"/>
										<g>
											<g>
												<g>
													<g>
														<path style="fill:#407BFF;" d="M101.775,426.24c-0.086-0.082-0.222-0.094-0.326-0.032
															c-0.477,0.28-0.881,0.682-1.16,1.192c-0.147,0.268,0.273,0.54,0.422,0.269c0.248-0.453,0.602-0.808,1.018-1.054
															c0.139-0.082,0.166-0.26,0.05-0.37C101.778,426.242,101.777,426.241,101.775,426.24z"/>
													</g>
												</g>
											</g>
										</g>
										<g>
											<g>
												<g>
													<g>
														<path style="fill:#407BFF;" d="M100.282,425.379c-0.086-0.082-0.222-0.094-0.326-0.033
															c-0.477,0.281-0.881,0.683-1.16,1.192c-0.147,0.268,0.273,0.54,0.422,0.269c0.248-0.453,0.602-0.808,1.018-1.054
															c0.139-0.082,0.166-0.26,0.05-0.37C100.284,425.382,100.283,425.38,100.282,425.379z"/>
													</g>
												</g>
											</g>
										</g>
										<g>
											<g>
												<g>
													<g>
														<path style="fill:#407BFF;" d="M98.74,424.572c-0.086-0.082-0.222-0.094-0.326-0.033
															c-0.477,0.28-0.881,0.683-1.16,1.192c-0.147,0.268,0.273,0.54,0.422,0.269c0.248-0.452,0.602-0.808,1.018-1.054
															c0.139-0.082,0.165-0.26,0.05-0.37C98.742,424.574,98.741,424.573,98.74,424.572z"/>
													</g>
												</g>
											</g>
										</g>
									</g>
								</g>
							</g>
						</g>
					</g>
				</g>
				<path style="opacity:0.2;fill:#FFFFFF;enable-background:new    ;" d="M113.533,433.426c0.13,0.286,0.255,0.587,0.368,0.918
					c0.201,0.59,0.159,1.908,0.158,1.937l-19.665-0.577c0,0-1.972-1.228-2.825-1.222c-1.518,0.01-2.235,1.312-2.235,1.312
					l-7.152-0.157c0,0-0.105-1.108-0.256-2.719l-0.002-0.001c-0.012-0.127-0.025-0.272-0.038-0.405L113.533,433.426z"/>
				<path style="fill:none;stroke:#407BFF;stroke-width:0.5;stroke-miterlimit:10;" d="M98.551,424.794
					c-0.04-0.684-0.079-1.372,0.002-2.052c0.081-0.68,0.289-1.359,0.701-1.906c0.192-0.254,0.469-0.494,0.787-0.465
					c0.334,0.03,0.569,0.348,0.676,0.665c0.205,0.61,0.091,1.298-0.208,1.868C100.208,423.474,99.062,424.403,98.551,424.794"/>
				<path style="fill:none;stroke:#407BFF;stroke-width:0.5;stroke-miterlimit:10;" d="M98.468,424.792
					c-0.25-0.638-0.503-1.279-0.861-1.863c-0.358-0.584-0.831-1.113-1.435-1.438c-0.28-0.151-0.633-0.252-0.909-0.093
					c-0.29,0.167-0.371,0.554-0.336,0.887c0.069,0.64,0.461,1.217,0.971,1.609C96.41,424.286,97.839,424.651,98.468,424.792"/>
			</g>
			<g>
				<g>
					<g>
						<g>
							<g>
								<polygon style="fill:#263238;" points="144.004,405.004 141.801,421.453 152.003,421.789 163.17,397.559 								"/>
							</g>
						</g>
					</g>
				</g>
				<g>
					<g>
						<g>
							<g>
								<g>
									<g>
										<path style="fill:#263238;" d="M143.096,419.618c1.315,1.293,4.262,1.193,5.616,0.197l0.096-1.916
											c0.286-1.61,0.889-2.357,2.621-2.086c0.849,0.132,1.89,1.196,2.551,2.762c1.184,2.808,2.63,3.97,2.63,3.97
											s7.648,4.082,10.408,5.016c1.647,0.557,3.845,1.389,4.985,3.201c0.325,0.518,0.615,1.129,0.861,1.848
											c0.201,0.59,0.159,1.909,0.158,1.937l-19.665-0.577c0,0-1.972-1.228-2.825-1.222c-1.518,0.01-2.235,1.312-2.235,1.312
											l-7.152-0.157c0,0-0.105-1.107-0.256-2.719l-0.002-0.001c-0.068-0.726-0.145-1.554-0.227-2.428
											c-0.352-3.753,0.247-8.194,0.156-9.256C140.655,417.637,143.096,419.618,143.096,419.618z"/>
										<g>
											<g>
												<g>
													<g>
														<path style="fill:#407BFF;" d="M160.737,424.564c-0.087-0.082-0.222-0.094-0.326-0.032
															c-0.477,0.28-0.881,0.682-1.16,1.192c-0.147,0.268,0.273,0.54,0.422,0.269c0.248-0.453,0.602-0.808,1.018-1.054
															c0.139-0.082,0.166-0.26,0.05-0.37C160.74,424.566,160.739,424.565,160.737,424.564z"/>
													</g>
												</g>
											</g>
										</g>
										<g>
											<g>
												<g>
													<g>
														<path style="fill:#407BFF;" d="M159.243,423.703c-0.086-0.082-0.222-0.094-0.326-0.033
															c-0.477,0.281-0.881,0.683-1.16,1.192c-0.147,0.268,0.273,0.54,0.422,0.269c0.248-0.453,0.602-0.808,1.018-1.054
															c0.139-0.082,0.165-0.26,0.05-0.37C159.246,423.706,159.245,423.704,159.243,423.703z"/>
													</g>
												</g>
											</g>
										</g>
										<g>
											<g>
												<g>
													<g>
														<path style="fill:#407BFF;" d="M157.701,422.896c-0.086-0.082-0.222-0.094-0.326-0.033
															c-0.477,0.28-0.881,0.683-1.16,1.192c-0.147,0.268,0.273,0.54,0.422,0.269c0.248-0.452,0.602-0.808,1.018-1.054
															c0.139-0.082,0.165-0.26,0.05-0.37C157.704,422.899,157.703,422.897,157.701,422.896z"/>
													</g>
												</g>
											</g>
										</g>
									</g>
								</g>
							</g>
						</g>
					</g>
				</g>
				<path style="opacity:0.2;fill:#FFFFFF;enable-background:new    ;" d="M172.495,431.75c0.13,0.286,0.255,0.587,0.368,0.917
					c0.201,0.59,0.159,1.909,0.158,1.937l-19.665-0.577c0,0-1.972-1.228-2.825-1.222c-1.518,0.01-2.235,1.312-2.235,1.312
					l-7.152-0.157c0,0-0.105-1.108-0.256-2.719l-0.002-0.001c-0.012-0.127-0.025-0.272-0.038-0.405L172.495,431.75z"/>
				<path style="fill:none;stroke:#407BFF;stroke-width:0.5;stroke-miterlimit:10;" d="M157.513,423.118
					c-0.04-0.684-0.079-1.372,0.001-2.052c0.081-0.68,0.289-1.359,0.701-1.906c0.192-0.254,0.469-0.494,0.787-0.465
					c0.333,0.03,0.569,0.348,0.676,0.665c0.205,0.61,0.091,1.298-0.208,1.868C159.17,421.798,158.024,422.727,157.513,423.118"/>
				<path style="fill:none;stroke:#407BFF;stroke-width:0.5;stroke-miterlimit:10;" d="M157.429,423.116
					c-0.251-0.638-0.503-1.279-0.861-1.863c-0.358-0.584-0.831-1.113-1.435-1.438c-0.281-0.151-0.633-0.252-0.909-0.093
					c-0.29,0.167-0.371,0.554-0.335,0.887c0.069,0.64,0.461,1.217,0.971,1.609C155.371,422.611,156.801,422.975,157.429,423.116"/>
			</g>
			<path style="fill:#263238;" d="M142.178,241.543c0,0-16.516,37.01-33.664,88.498c-17.733,53.245-29.603,87.492-29.603,87.492
				l20.261,2.433c0,0,34.501-80.083,38.079-90.023c3.578-9.939,21.423-48.966,21.423-48.966s7.92,56.778,5.535,63.537
				c-2.385,6.759-25.513,71.328-25.513,71.328l18.092,2.407c0,0,30.878-57.036,34.059-81.686c3.18-24.65,3.008-84.925,3.008-84.925
				L142.178,241.543z"/>
			<polygon style="opacity:0.2;enable-background:new    ;" points="158.674,280.977 171.189,276.292 163.265,285.819 
				161.417,302.288 			"/>
		</g>
		<g>
			<path style="fill:#407BFF;" d="M174.786,167.969c-0.972,0.596-22.825,12.577-22.825,12.577l-0.669,38.447
				c0,0-11.078,19.213-9.081,24.336c1.996,5.123,30.147,19.154,40.823,17.267c10.675-1.887,16.133-16.284,16.133-16.284
				s8.332-42.032,8.764-53.865c0.431-11.833-3.128-18.255-3.417-19.065c-0.099-0.277-2.416-0.963-5.42-1.745
				c-5.771-1.503-14.079-3.36-14.079-3.36L174.786,167.969z"/>
			<path style="opacity:0.7;fill:#FFFFFF;" d="M174.786,167.969c-0.972,0.596-22.825,12.577-22.825,12.577l-0.669,38.447
				c0,0-11.078,19.213-9.081,24.336c1.996,5.123,30.147,19.154,40.823,17.267c10.675-1.887,16.133-16.284,16.133-16.284
				s8.332-42.032,8.764-53.865c0.431-11.833-3.128-18.255-3.417-19.065c-0.099-0.277-2.416-0.963-5.42-1.745
				c-5.771-1.503-14.079-3.36-14.079-3.36L174.786,167.969z"/>
			<path style="fill:#407BFF;" d="M186.253,185.643c0,0,0.691,40.591-14.284,65.001l4.652,8.003l8.599-6.269
				c0,0,13.742-48.595,4.049-67.995l1.702-5.57l-2.898-0.668l-2.526,0.755l-2.723,3.223L186.253,185.643z"/>
			<g>
				<path style="opacity:0.2;enable-background:new    ;" d="M169.903,175.223c0.716,0.804,11.016,8.917,11.016,8.917l5.263-5.956
					c0.031-0.069-4.041,7.384-4.059,7.45l-1.603,0.549L169.903,175.223z"/>
				<path style="opacity:0.2;enable-background:new    ;" d="M186.75,177.914l5.234,0.919c0,0,0.908-5.288,0.7-6.62
					c-0.207-1.332-0.828-3.515-0.828-3.515l0.63-0.153c0,0,1.417,3.492,1.128,6.399c-0.306,3.079-0.83,6.106-0.83,6.106
					L186.75,177.914z"/>
			</g>
			<path style="opacity:0.2;enable-background:new    ;" d="M185.539,223.244c-10.028-22.445-22.566-33.543-22.566-33.543
				l20.429,36.264l17.185-3.444L185.539,223.244z"/>
		</g>
	</g>
	<path style="fill:#407BFF;" d="M204.512,171.381c0,0,8.073-1.454,9.476,13.18c1.493,15.569,0.232,26.44,3.625,25.851
		c3.393-0.589,21.032-5.83,21.032-5.83l5.465,18.373c0,0-25.031,11.038-35.567,9.282c-10.536-1.756-9.783-20.319-9.783-20.319
		L204.512,171.381z"/>
	<path style="opacity:0.7;fill:#FFFFFF;" d="M204.512,171.381c0,0,8.073-1.454,9.476,13.18c1.493,15.569,0.232,26.44,3.625,25.851
		c3.393-0.589,21.032-5.83,21.032-5.83l5.465,18.373c0,0-25.031,11.038-35.567,9.282c-10.536-1.756-9.783-20.319-9.783-20.319
		L204.512,171.381z"/>
	<g>
		<g>
			<path style="fill:#263238;" d="M203.255,221.429c1.177-6.469,1.798-13.046,2.345-19.594c0.388-4.647,0.855-9.349,0.87-14.017
				c0.002-0.483-0.748-0.483-0.75,0c-0.014,4.557-0.467,9.145-0.842,13.682c-0.545,6.592-1.16,13.217-2.346,19.729
				C202.445,221.702,203.168,221.904,203.255,221.429L203.255,221.429z"/>
		</g>
	</g>
	<g>
		<path style="fill:#407BFF;" d="M229.378,223.459c-8.085,6.598-14.638,14.579-19.567,23.389l-15.459-3.318l-9.163,29.075
			l14.57,6.146c-1.014,10.039-0.218,20.337,2.623,30.38l-13.239,8.561l14.081,27.037l14.604-5.939
			c6.6,8.084,14.58,14.64,23.389,19.566l-3.317,15.46l29.074,9.16l6.145-14.566c10.043,1.012,20.34,0.217,30.382-2.623l8.561,13.238
			l27.038-14.081l-5.939-14.604c8.084-6.6,14.638-14.581,19.565-23.389l15.458,3.315l9.164-29.074l-14.567-6.145
			c1.012-10.041,0.216-20.338-2.625-30.38l13.239-8.561l-14.081-27.037l-14.604,5.939c-6.6-8.085-14.581-14.642-23.388-19.567
			l3.316-15.459l-29.075-9.16l-6.144,14.567c-10.042-1.013-20.338-0.219-30.38,2.623l-8.561-13.239l-27.039,14.082L229.378,223.459z
			 M317.872,267.839c10.527,20.213,2.674,45.135-17.54,55.663c-20.216,10.528-45.138,2.673-55.664-17.539
			c-10.528-20.215-2.675-45.135,17.54-55.664C282.423,239.772,307.344,247.624,317.872,267.839z"/>
		<path style="opacity:0.4;fill:#FFFFFF;" d="M229.378,223.459c-8.085,6.598-14.638,14.579-19.567,23.389l-15.459-3.318
			l-9.163,29.075l14.57,6.146c-1.014,10.039-0.218,20.337,2.623,30.38l-13.239,8.561l14.081,27.037l14.604-5.939
			c6.6,8.084,14.58,14.64,23.389,19.566l-3.317,15.46l29.074,9.16l6.145-14.566c10.043,1.012,20.34,0.217,30.382-2.623l8.561,13.238
			l27.038-14.081l-5.939-14.604c8.084-6.6,14.638-14.581,19.565-23.389l15.458,3.315l9.164-29.074l-14.567-6.145
			c1.012-10.041,0.216-20.338-2.625-30.38l13.239-8.561l-14.081-27.037l-14.604,5.939c-6.6-8.085-14.581-14.642-23.388-19.567
			l3.316-15.459l-29.075-9.16l-6.144,14.567c-10.042-1.013-20.338-0.219-30.38,2.623l-8.561-13.239l-27.039,14.082L229.378,223.459z
			 M317.872,267.839c10.527,20.213,2.674,45.135-17.54,55.663c-20.216,10.528-45.138,2.673-55.664-17.539
			c-10.528-20.215-2.675-45.135,17.54-55.664C282.423,239.772,307.344,247.624,317.872,267.839z"/>
		<g>
			<g style="opacity:0.3;">
				<path style="fill:#FFFFFF;" d="M307.02,254.653c9.579-9.875,20.815-18.194,32.949-24.934
					c-5.557-5.695-11.852-10.477-18.647-14.277l3.316-15.459l-7.458-2.35c1.561,5.991,2.86,12.051,2.996,18.224
					c0.178,8.055-1.825,16.45-7.124,22.518c-4.318,4.944-10.222,7.809-16.469,10.217
					C300.316,250.081,303.837,252.114,307.02,254.653z"/>
			</g>
			<g style="opacity:0.3;">
				<path style="fill:#FFFFFF;" d="M286.303,368.665c-0.856-3.329-2.398-6.46-3.726-9.642c-4.133-9.898-6.111-20.482-6.222-31.15
					c-6.669-0.806-13.079-3.233-18.63-7.082c-3.638,8.394-9.801,15.7-16.881,21.592c-3.563,2.965-7.361,5.605-11.288,8.059
					c3.676,2.978,7.575,5.63,11.662,7.915l-3.317,15.46l29.074,9.16l6.145-14.566C277.48,368.85,281.889,368.927,286.303,368.665z"
					/>
			</g>
		</g>
	</g>
	<g>
		<path style="fill:#FFB463;" d="M186.446,158.3l-15.096-8.031c0.11,1.082,0.357,3.028,1.033,4.312
			c5.659,10.753,2.226,15.468,2.226,15.468l11.342,7.566l3.105-7.214l0,0C187.783,167.879,186.325,161.716,186.446,158.3z"/>
		<path style="opacity:0.2;" d="M187.004,163.055l-8.476-1.342c0.926,2.549,3.425,5.479,9.255,5.354
			C187.783,167.067,187.015,164.197,187.004,163.055z"/>
		<path style="fill:#263238;" d="M195.973,131.814c1.926,3.247,1.581,11.622-3.867,10.428
			C186.659,141.049,192.663,126.231,195.973,131.814z"/>
		<path style="fill:#FFB463;" d="M170.781,143.225c1.575,9.139,2.278,14.325,7.448,18.494c22.27,13.765,26.619-27.634,8.525-33.12
			C177.477,126.052,169.207,134.086,170.781,143.225z"/>
		<path style="fill:#263238;" d="M164.807,133.23c0,0,8.311-1.166,9.71-1.271c1.399-0.105,2.821,4.872,2.623,6.493
			c-0.198,1.62-2.39,2.331-2.331,3.87c0.07,1.317,2.277,5.163,1.491,6.938c-0.898,0.711-5.839-2.241-5.839-2.241l-2.893,1.058
			C167.567,148.078,159.27,136.96,164.807,133.23z"/>
		<path style="fill:#263238;" d="M164.959,133.953c-0.874-0.781-1.807-2.133-0.781-4.663c0,0.688,0.874,1.504,1.41,1.795
			c0.536-2.087,3.252-5.677,10.876-7.379c9.383-2.087,11.842,1.084,14.581-0.326c2.739-1.41-0.686-2.495-0.686-2.495
			s4.732-1.096,6.259,2.483c1.527,3.579,0.21,9.861-8.16,9.465c-8.369-0.396-10.001,2.331-14.221,1.655
			C171.16,134.107,168.06,133.928,164.959,133.953z"/>
		<path style="fill:#FFB463;" d="M167.989,151.13c1.615,4.807,9.99,7.426,8.918,0.248
			C176.292,144.39,165.897,142.671,167.989,151.13z"/>
		<path style="fill:#263238;" d="M184.372,144.157c0.227,2.226,2.496,1.934,2.23-0.267
			C186.374,141.664,184.106,141.957,184.372,144.157z"/>
		<path style="fill:#263238;" d="M193.497,143.707c0.227,2.226,2.496,1.934,2.23-0.267
			C195.5,141.214,193.231,141.507,193.497,143.707z"/>
		<path style="fill:#FF904B;" d="M190.436,143.415c0,0,3.494,4.352,4.658,6.152c-1.181,1.328-3.498,1.029-3.498,1.029
			L190.436,143.415z"/>
		<path style="fill:#263238;" d="M181.454,140.251c0.148,0.042,0.316,0.006,0.435-0.111c1.423-1.384,3.023-1.056,3.039-1.053
			c1.941-0.859-1.647-1.723-3.657,0.424C181.026,139.737,181.136,140.169,181.454,140.251z"/>
		
			<path style="opacity:0.2;fill:none;stroke:#000000;stroke-width:0.5;stroke-linecap:round;stroke-linejoin:round;stroke-miterlimit:10;" d="
			M169.812,148.519c1.533-2.132,4.235,0.394,4.503,2.295"/>
		<path style="fill:#263238;" d="M197.136,139.186c0.325-0.099,0.414-0.568,0.137-0.773c-1.918-1.516-3.848-0.859-3.938-0.841
			c-0.54,0.177-0.266,1.032,0.277,0.843C193.908,138.081,195.607,138.404,197.136,139.186z"/>
		<path style="fill:#263238;" d="M190.343,153.746c-0.836,1.025-1.596,2.109-2.275,3.244c-0.215-0.085-0.438-0.166-0.649-0.262
			c-2.93-1.199-3.898-2.719-4.066-4.048c-0.071-0.651,0.012-1.31,0.242-1.923c0.122-0.348,0.291-0.678,0.503-0.98
			c1.174,1.565,3.811,2.891,5.255,3.54C189.988,153.568,190.343,153.746,190.343,153.746z"/>
		<path style="fill:#FFFFFF;" d="M189.354,153.301l-0.699,0.939c-2.749-1.133-4.535-2.292-5.06-3.499
			c0.121-0.349,0.291-0.679,0.503-0.98C185.28,151.34,187.91,152.652,189.354,153.301z"/>
		<path style="fill:#FF3F3E;" d="M187.455,156.754c-2.93-1.199-3.898-2.719-4.066-4.048c1.105,0.476,2.117,1.143,2.989,1.972
			C186.944,155.241,187.321,155.967,187.455,156.754z"/>
	</g>
	<g>
		<g>
			<g>
				<path style="fill:#407BFF;" d="M339.992,352.865c4.786-4.514,9.114-9.487,12.941-14.837c0.563-0.786-0.738-1.536-1.295-0.757
					c-3.753,5.246-8.015,10.109-12.707,14.534C338.228,352.469,339.29,353.528,339.992,352.865L339.992,352.865z"/>
			</g>
		</g>
		<g>
			<g>
				<path style="fill:#407BFF;" d="M354.768,335.805c0.517-0.8,1.034-1.6,1.551-2.4c0.213-0.33,0.078-0.843-0.269-1.026
					c-0.373-0.197-0.799-0.083-1.026,0.269c-0.517,0.8-1.034,1.6-1.551,2.4c-0.213,0.33-0.078,0.843,0.269,1.026
					C354.115,336.271,354.54,336.157,354.768,335.805L354.768,335.805z"/>
			</g>
		</g>
	</g>
	<g>
		<path style="fill:#FFB463;" d="M222.402,229.352c0,0,4.6-3.333,5.854-5.609c1.254-2.276,1.548-2.063,1.659-2.125
			c0.111-0.062,6.307-1.155,7.118-1.99c0.812-0.834,0.809-2.084,0.123-2.164c-0.685-0.081-5.95,1.479-7.372,1.434
			c-1.422-0.045,0.753-0.888,4.401-1.802c3.648-0.914,6.713-2.141,6.232-3.878c-0.481-1.738-8.662,1.78-10.983,1.948
			c-2.321,0.168,1.889-0.886,4.938-2.453c3.049-1.567,5.683-2.318,4.748-4.034c-0.935-1.716-10.726,3.753-12.556,3.501
			c-1.83-0.253-0.252-1.692,1.337-2.904c1.589-1.212,4.976-1.659,5.48-2.99c0.504-1.331-0.314-1.803-1.558-1.686
			c-1.244,0.117-6.881,2.205-8.124,3.515c0,0-0.918-1.376-1.758-1.108c-0.839,0.268-0.837,3.846-1.568,5.188
			c-0.731,1.342-2.76,10.102-2.76,10.102L222.402,229.352z"/>
		<path style="opacity:0.2;enable-background:new    ;" d="M148.79,185.609c-2.649,2.984-0.817,8.048,0.027,11.948
			c2.636,12.172,17.655,46.253,22.191,51.021c5.497,5.779,48.54-12.775,51.436-15.387c2.896-2.612-5.88-13.727-5.88-13.727
			s-34.987,9.374-34.765,8.265c0.221-1.109-10.792-24.479-17.805-33.208C156.982,185.793,151.399,182.736,148.79,185.609
			C148.764,185.638,148.816,185.58,148.79,185.609z"/>
		<path style="fill:#407BFF;" d="M218.167,217.7c0,0-34.987,9.374-34.765,8.265c0.221-1.109-10.792-24.48-17.805-33.208
			c-7.013-8.728-13.636-12.211-13.636-12.211c-4.536,3.078-7.506,8.821-4.504,16.377c4.789,12.055,20.52,43.477,25.056,48.246
			c5.497,5.779,48.638-11.129,51.534-13.741C226.942,228.816,218.167,217.7,218.167,217.7z"/>
		<path style="opacity:0.7;fill:#FFFFFF;" d="M218.167,217.7c0,0-34.987,9.374-34.765,8.265c0.221-1.109-10.792-24.48-17.805-33.208
			c-7.013-8.728-13.636-12.211-13.636-12.211c-4.536,3.078-7.506,8.821-4.504,16.377c4.789,12.055,20.52,43.477,25.056,48.246
			c5.497,5.779,48.638-11.129,51.534-13.741C226.942,228.816,218.167,217.7,218.167,217.7z"/>
	</g>
</g>
</svg>
